# xmcd CD database file
#
# Track frame offsets:
#	150
#	29720
#	48035
#	69895
#	94055
#	109800
#	125210
#	156735
#	177330
#	197720
#	222172
#	241400
#	266535
#	290945
#
# Disc length: 4267 seconds
#
# Revision: 2
# Processed by: cddbd v1.5.2PL0 Copyright (c) Steve Scherf et al.
# Submitted via: CDex 1.70beta3
#
DISCID=db10a90e
DTITLE=甲斐バンド - THE 甲斐バンド
DYEAR=1986
DGENRE=J-Rock
TTITLE0=NIGHT WAVE
TTITLE1=フェアリー (完全犯罪)
TTITLE2=BLUE LETTER
TTITLE3=感触 (タッチ)
TTITLE4=裏切りの街角
TTITLE5=かりそめのスウィング
TTITLE6=安奈
TTITLE7=テレフォン・ノイローゼ
TTITLE8=ポップコーンをほおばって
TTITLE9=冷血 (コールド・ブラッド)
TTITLE10=ランデヴー
TTITLE11=観覧車 '82
TTITLE12=レイニー・ドライヴ
TTITLE13=ラヴ・マイナス・ゼロ
EXTD=YEAR: 1986
EXTT0=
EXTT1=
EXTT2=
EXTT3=
EXTT4=
EXTT5=
EXTT6=
EXTT7=
EXTT8=
EXTT9=
EXTT10=
EXTT11=
EXTT12=
EXTT13=
PLAYORDER=
